<svg xmlns="http://www.w3.org/2000/svg" width="385" height="385" viewBox="0 0 385 385">
  <g fill="none" fill-rule="evenodd" transform="translate(17.5 8)">
    <g transform="translate(.672 .554)">
      <g stroke="#000000" transform="rotate(-180 171.721 137.016)">
        <circle cx="253.822" cy="85.362" r="82.16" fill="#777777" fill-opacity=".5" stroke-width="3"/>
        <circle cx="84.226" cy="85.362" r="82.16" fill="#777777" fill-opacity=".5" stroke-width="3"/>
        <circle class="reaction-class-3" cx="258.271" cy="196.039" r="17.944"/>
        <circle class="reaction-class-3" cx="246.045" cy="210.299" r="8.908"/>
        <circle class="reaction-class-2" cx="85.723" cy="210.299" r="8.908"/>
        <circle class="reaction-class-2" cx="75.257" cy="196.039" r="17.944"/>
        <circle class="reaction-class-3" cx="301.736" cy="18.952" r="17.944" fill="#6E6E6E"/>
        <circle class="reaction-class-2" cx="33.978" cy="18.952" r="17.944" fill="#6E6E6E"/>
        <circle class="reaction-class-2" cx="77.354" cy="43.408" r="37.482" fill="#2A2A2A" fill-opacity=".6"/>
        <circle class="reaction-class-3" cx="259.109" cy="43.408" r="37.482" fill="#2A2A2A" fill-opacity=".6"/>
        <circle class="reaction-class-3" cx="310.495" cy="49.277" r="6.725" fill="#373535"/>
        <circle class="reaction-class-2" cx="27.74" cy="49.277" r="6.725" fill="#373535"/>
      </g>
      <g class="reaction-class-4" stroke="#000000" transform="rotate(-180 88.842 138.394)">
        <circle cx="88.064" cy="88.117" r="87.516"/>
        <path d="M88.063771,6.24175139 L16.9236449,129.460064 L159.203897,129.460064 L88.063771,6.24175139 Z"/>
        <path d="M80.4562002,53.8109803 L45.9912552,113.506016 L114.921145,113.506016 L80.4562002,53.8109803 Z" transform="rotate(-60 80.456 83.408)"/>
      </g>
      <g transform="rotate(-180 173.71 183.046)">
        <g class="reaction-class-5">
          <circle cx="88.204" cy="177.421" r="87.683" stroke="#000000"/>
          <path stroke="#000000" d="M88.2039104,96.9568392 L17.0637842,220.175152 L159.344037,220.175152 L88.2039104,96.9568392 Z"/>
          <path stroke="#000000" d="M77.7752045,144.526068 L43.3102595,204.221104 L112.240149,204.221104 L77.7752045,144.526068 Z" transform="rotate(-60 77.775 174.124)"/>
        </g>
        
        <circle cx="170.965" cy="91.917" r="68.688" stroke="#000000" stroke-width="3"/>
        <g fill="#777777" fill-opacity=".5" stroke="#000000" transform="rotate(2 25.448 2740.083)">
          <circle cx="145.186" cy="38.809" r="3.133" transform="rotate(-15 145.186 38.81)"/>
          <circle cx="130.805" cy="23.278" r="3.133" transform="rotate(-30 130.805 23.278)"/>
          <circle cx="112.894" cy="11.998" r="3.133" transform="rotate(-45 112.894 11.998)"/>
          <circle cx="92.674" cy="5.738" r="3.133" transform="rotate(-60 92.674 5.738)"/>
          <circle cx="71.523" cy="4.925" r="3.133" transform="rotate(-75 71.523 4.925)"/>
          <circle cx="50.882" cy="9.613" r="3.133" transform="rotate(-90 50.882 9.613)"/>
          <circle cx="32.158" cy="19.485" r="3.133" transform="rotate(-105 32.158 19.485)"/>
          <circle cx="16.626" cy="33.866" r="3.133" transform="rotate(-120 16.626 33.866)"/>
          <circle cx="5.346" cy="51.776" r="3.133" transform="rotate(-135 5.346 51.776)"/>
        </g>
        <circle cx="170.965" cy="91.917" r="61.343" stroke="#000000"/>
        <circle cx="170.965" cy="91.917" r="56.478" stroke="#000000"/>
        
        <path stroke="#000000" stroke-width="2" d="M149.884959,197.008725 L72.9097974,330.333617 L226.860121,330.333617 L149.884959,197.008725 Z" transform="rotate(-60 149.885 263.171)"/>
        <path stroke="#000000" d="M170.66328,140.872616 L92.8220929,275.697508 L248.504468,275.697508 L170.66328,140.872616 Z"/>
      </g>
      <g stroke="#000000" transform="translate(71.212 68.124)">
        <g fill="#FFFFFF" class="reaction-class-6" stroke-linecap="round" stroke-linejoin="round" transform="translate(83.813 .03)">
          <polyline stroke="#000000" stroke-linecap="round" stroke-linejoin="round" transform="translate(-155.5 -68)"  points="155.942 109.808 178.518 113.993 196.683 107.795"/>
          <polygon points="21.252 32.963 21.252 .075 41.05 38.897"/>
          <polygon points=".313 40.904 21.001 33.023 21.066 .13"/>
        </g>
        <g class="reaction-class-1" transform="translate(.356 59.013)">
          <g class="reaction-class-7" stroke-linecap="round" stroke-linejoin="round" transform="translate(9.306 140.774)">
            <polygon fill="#494949" fill-opacity=".5" stroke-width="2" points=".068 33.907 97.565 9.005 187.82 27.535 93.944 47.544"/>
            <polygon fill="#6B6A6A" points="65.729 27.147 95.033 19.662 122.159 25.231 93.944 31.245"/>
            <polygon points="1.343 24.873 97.516 .309 186.545 18.587 93.944 38.325"/>
          </g>
          <g transform="translate(104.64)">
            <polygon fill="#B7B7B7" stroke-linecap="round" stroke-linejoin="round" stroke-width="2" points=".128 132.462 .128 .025 17.557 7.051 99.708 153.365"/>
            <g stroke-linecap="square" transform="matrix(-1 0 0 1 80.31 11.73)">
              <path d="M.252083846 110.024267L78.7933987 85.6038585M18.2189122 75.596226L79.2497303 56.6202574M33.7475526 48.5695317L78.6148352 34.6192002M46.0638459 26.0831017L78.8084742 15.9019988M56.8717686 7.21951604L78.8407065.388837843"/>
            </g>
            <g stroke-linecap="square" transform="translate(2.728 1.857)">
              <path d="M62.0649713 142.46732L8.01089401 2.83215512M78.9917816 146.699023L11.1264713 4.42455362M12.6951078 132.593348L.812729338.322336721M28.2113506 135.414483L3.30636202 1.33308274M45.1381609 139.646185L5.77106705 2.20917742"/>
            </g>
          </g>
          <g>
          <polygon fill="#B7B7B7" stroke-linecap="round" stroke-linejoin="round" stroke-width="2" points="83.489 8.024 .062 158.753 104.057 132.757 104.377 .003"/>
          <g stroke-linecap="square" transform="translate(21.293 11.73)">
            <path d="M.678422371 110.797738L81.5188189 85.5218552M18.8098629 76.8325389L81.0215387 57.1734427M33.855687 50.0579284L81.3053052 34.9163676M46.2442993 26.9943228L81.3025502 15.8165394M56.4144361 8.5522544L81.3721143.587506886"/>
          </g>
          <g stroke-linecap="square" transform="translate(16.694 1.857)">
            <path d="M75.1278764 132.593348L84.1708678.40085464M.135687413 150.72961L70.9912219 5.50141999M17.2946078 146.699023L74.9908145 3.71169356M38.4531207 142.46732L78.6542953 2.11585129M81.4186082 1.01281228L59.17152 136.252007"/>
          </g>
          </g>
        </g>
      </g>
      <path stroke="#979797"/>
    </g>
  </g>
</svg>
