<svg xmlns="http://www.w3.org/2000/svg" width="17" height="17" viewBox="0 0 17 17">
  <path fill="#747474" d="M12.1134977,8.95487439 C12.6582028,9.36653758 13.0102041,10.0197127 13.0102041,10.755102 C13.0102041,12.0005605 12.0005605,13.0102041 10.755102,13.0102041 C10.164688,13.0102041 9.62726795,12.7833101 9.2252797,12.4119602 C8.90527957,13.2680291 8.07994297,13.877551 7.1122449,13.877551 C5.86678643,13.877551 4.85714286,12.8679074 4.85714286,11.622449 C4.85714286,11.2462775 4.94924747,10.8916181 5.11213535,10.5797923 C3.90930895,10.5315569 2.94897959,9.54119223 2.94897959,8.32653061 C2.94897959,7.08107215 3.95862317,6.07142857 5.20408163,6.07142857 C5.32603039,6.07142857 5.44571832,6.08110833 5.56241901,6.09974141 C5.44347758,5.82519392 5.37755102,5.52233677 5.37755102,5.20408163 C5.37755102,3.95862317 6.38719459,2.94897959 7.63265306,2.94897959 C8.82356759,2.94897959 9.79886962,3.8721264 9.8820108,5.04187164 C10.2337111,4.81520107 10.652516,4.68367347 11.1020408,4.68367347 C12.3474993,4.68367347 13.3571429,5.69331704 13.3571429,6.93877551 C13.3571429,7.82055179 12.8510544,8.58412478 12.1134977,8.95487439 L12.1134977,8.95487439 Z M10.472047,7.9770568 C10.6557177,8.08874089 10.8713679,8.15306122 11.1020408,8.15306122 C11.7726723,8.15306122 12.3163265,7.60940699 12.3163265,6.93877551 C12.3163265,6.26814403 11.7726723,5.7244898 11.1020408,5.7244898 C10.4314093,5.7244898 9.8877551,6.26814403 9.8877551,6.93877551 C9.8877551,6.97665176 9.88948926,7.01412297 9.89288251,7.05111409 C10.1555161,7.30473713 10.3567334,7.62154721 10.472047,7.9770568 L10.472047,7.9770568 Z M6.27059638,7.74550213 C6.06460854,7.36819859 5.66423568,7.1122449 5.20408163,7.1122449 C4.53345015,7.1122449 3.98979592,7.65589913 3.98979592,8.32653061 C3.98979592,8.99716209 4.53345015,9.54081633 5.20408163,9.54081633 C5.56799771,9.54081633 5.89452336,9.38072884 6.11707739,9.12713503 C6.08714585,8.98058611 6.07142857,8.82886323 6.07142857,8.67346939 C6.07142857,8.34267945 6.14265057,8.0285243 6.27059638,7.74550213 L6.27059638,7.74550213 Z M7.63265306,6.41836735 C8.30328454,6.41836735 8.84693878,5.87471311 8.84693878,5.20408163 C8.84693878,4.53345015 8.30328454,3.98979592 7.63265306,3.98979592 C6.96202158,3.98979592 6.41836735,4.53345015 6.41836735,5.20408163 C6.41836735,5.87471311 6.96202158,6.41836735 7.63265306,6.41836735 Z M9.55569627,10.5644541 C9.54590197,10.6265643 9.54081633,10.6902393 9.54081633,10.755102 C9.54081633,11.4257335 10.0844706,11.9693878 10.755102,11.9693878 C11.4257335,11.9693878 11.9693878,11.4257335 11.9693878,10.755102 C11.9693878,10.0844706 11.4257335,9.54081633 10.755102,9.54081633 C10.6255693,9.54081633 10.5007736,9.56109849 10.3837177,9.59866029 C10.2054136,9.99450852 9.91621231,10.329634 9.55569627,10.5644541 L9.55569627,10.5644541 Z M6.90660368,10.425504 C6.33390946,10.5231931 5.89795918,11.0219102 5.89795918,11.622449 C5.89795918,12.2930805 6.44161342,12.8367347 7.1122449,12.8367347 C7.78287638,12.8367347 8.32653061,12.2930805 8.32653061,11.622449 C8.32653061,11.3595685 8.24299499,11.1161987 8.10102081,10.9174368 C7.65075143,10.8727315 7.2394433,10.6955848 6.90660368,10.425504 L6.90660368,10.425504 Z M8.32653061,9.8877551 C8.99716209,9.8877551 9.54081633,9.34410087 9.54081633,8.67346939 C9.54081633,8.00283791 8.99716209,7.45918367 8.32653061,7.45918367 C7.65589913,7.45918367 7.1122449,8.00283791 7.1122449,8.67346939 C7.1122449,9.34410087 7.65589913,9.8877551 8.32653061,9.8877551 Z M4.29675028,14.6630208 C5.49363248,15.4808852 6.94095994,15.9591837 8.5,15.9591837 C12.6195934,15.9591837 15.9591837,12.6195934 15.9591837,8.5 C15.9591837,4.38040661 12.6195934,1.04081633 8.5,1.04081633 C4.38040661,1.04081633 1.04081633,4.38040661 1.04081633,8.5 C1.04081633,9.5761949 1.26872788,10.5991582 1.67891792,11.5232568 C1.86284122,11.4747932 2.05595709,11.4489796 2.25510204,11.4489796 C3.50056051,11.4489796 4.51020408,12.4586232 4.51020408,13.7040816 C4.51020408,14.0469871 4.43366939,14.3720169 4.29675028,14.6630208 Z M0.75922367,12.0164956 C0.271612888,10.9448457 0,9.75414213 0,8.5 C0,3.80557963 3.80557963,0 8.5,0 C13.1944204,0 17,3.80557963 17,8.5 C17,13.1944204 13.1944204,17 8.5,17 C6.69561852,17 5.02255276,16.4377706 3.64643184,15.4789408 C3.26319675,15.7797826 2.78010007,15.9591837 2.25510204,15.9591837 C1.00964357,15.9591837 0,14.9495401 0,13.7040816 C0,13.0325728 0.29350338,12.4296153 0.75922367,12.0164956 Z M2.25510204,14.9183673 C2.92573352,14.9183673 3.46938776,14.3747131 3.46938776,13.7040816 C3.46938776,13.0334502 2.92573352,12.4897959 2.25510204,12.4897959 C1.58447056,12.4897959 1.04081633,13.0334502 1.04081633,13.7040816 C1.04081633,14.3747131 1.58447056,14.9183673 2.25510204,14.9183673 Z"/>
</svg>
