<svg xmlns="http://www.w3.org/2000/svg" width="17" height="17" viewBox="0 0 17 17">
  <path fill="#747474" d="M9.29177991,6.6348021 C9.44800753,6.43045776 9.54081633,6.1750468 9.54081633,5.89795918 C9.54081633,5.2273277 8.99716209,4.68367347 8.32653061,4.68367347 C7.65589913,4.68367347 7.1122449,5.2273277 7.1122449,5.89795918 C7.1122449,6.1750468 7.20505369,6.43045776 7.36128132,6.6348021 C7.65389366,6.49601337 7.98114454,6.41836735 8.32653061,6.41836735 C8.67191669,6.41836735 8.99916756,6.49601337 9.29177991,6.6348021 L9.29177991,6.6348021 Z M6.28786332,7.70822009 C6.08351898,7.55199247 5.82810802,7.45918367 5.55102041,7.45918367 C4.88038893,7.45918367 4.33673469,8.00283791 4.33673469,8.67346939 C4.33673469,9.34410087 4.88038893,9.8877551 5.55102041,9.8877551 C5.82810802,9.8877551 6.08351898,9.79494631 6.28786332,9.63871868 C6.1490746,9.34610634 6.07142857,9.01885546 6.07142857,8.67346939 C6.07142857,8.32808331 6.1490746,8.00083244 6.28786332,7.70822009 L6.28786332,7.70822009 Z M7.36128132,10.7121367 C7.20505369,10.916481 7.1122449,11.171892 7.1122449,11.4489796 C7.1122449,12.1196111 7.65589913,12.6632653 8.32653061,12.6632653 C8.99716209,12.6632653 9.54081633,12.1196111 9.54081633,11.4489796 C9.54081633,11.171892 9.44800753,10.916481 9.29177991,10.7121367 C8.99916756,10.8509254 8.67191669,10.9285714 8.32653061,10.9285714 C7.98114454,10.9285714 7.65389366,10.8509254 7.36128132,10.7121367 L7.36128132,10.7121367 Z M10.3651979,9.63871868 C10.5695422,9.79494631 10.8249532,9.8877551 11.1020408,9.8877551 C11.7726723,9.8877551 12.3163265,9.34410087 12.3163265,8.67346939 C12.3163265,8.00283791 11.7726723,7.45918367 11.1020408,7.45918367 C10.8249532,7.45918367 10.5695422,7.55199247 10.3651979,7.70822009 C10.5039866,8.00083244 10.5816327,8.32808331 10.5816327,8.67346939 C10.5816327,9.01885546 10.5039866,9.34610634 10.3651979,9.63871868 L10.3651979,9.63871868 Z M10.5005201,6.49947987 C10.6920164,6.44661175 10.8937302,6.41836735 11.1020408,6.41836735 C12.3474993,6.41836735 13.3571429,7.42801092 13.3571429,8.67346939 C13.3571429,9.91892785 12.3474993,10.9285714 11.1020408,10.9285714 C10.8937302,10.9285714 10.6920164,10.900327 10.5005201,10.8474589 C10.5533882,11.0389552 10.5816327,11.240669 10.5816327,11.4489796 C10.5816327,12.6944381 9.57198908,13.7040816 8.32653061,13.7040816 C7.08107215,13.7040816 6.07142857,12.6944381 6.07142857,11.4489796 C6.07142857,11.240669 6.09967298,11.0389552 6.1525411,10.8474589 C5.96104483,10.900327 5.75933104,10.9285714 5.55102041,10.9285714 C4.30556194,10.9285714 3.29591837,9.91892785 3.29591837,8.67346939 C3.29591837,7.42801092 4.30556194,6.41836735 5.55102041,6.41836735 C5.75933104,6.41836735 5.96104483,6.44661175 6.1525411,6.49947987 C6.09967298,6.30798361 6.07142857,6.10626981 6.07142857,5.89795918 C6.07142857,4.65250072 7.08107215,3.64285714 8.32653061,3.64285714 C9.57198908,3.64285714 10.5816327,4.65250072 10.5816327,5.89795918 C10.5816327,6.10626981 10.5533882,6.30798361 10.5005201,6.49947987 L10.5005201,6.49947987 Z M8.32653061,9.8877551 C8.99716209,9.8877551 9.54081633,9.34410087 9.54081633,8.67346939 C9.54081633,8.00283791 8.99716209,7.45918367 8.32653061,7.45918367 C7.65589913,7.45918367 7.1122449,8.00283791 7.1122449,8.67346939 C7.1122449,9.34410087 7.65589913,9.8877551 8.32653061,9.8877551 Z M4.29675028,14.6630208 C5.49363248,15.4808852 6.94095994,15.9591837 8.5,15.9591837 C12.6195934,15.9591837 15.9591837,12.6195934 15.9591837,8.5 C15.9591837,4.38040661 12.6195934,1.04081633 8.5,1.04081633 C4.38040661,1.04081633 1.04081633,4.38040661 1.04081633,8.5 C1.04081633,9.5761949 1.26872788,10.5991582 1.67891792,11.5232568 C1.86284122,11.4747932 2.05595709,11.4489796 2.25510204,11.4489796 C3.50056051,11.4489796 4.51020408,12.4586232 4.51020408,13.7040816 C4.51020408,14.0469871 4.43366939,14.3720169 4.29675028,14.6630208 Z M0.75922367,12.0164956 C0.271612888,10.9448457 0,9.75414213 0,8.5 C0,3.80557963 3.80557963,0 8.5,0 C13.1944204,0 17,3.80557963 17,8.5 C17,13.1944204 13.1944204,17 8.5,17 C6.69561852,17 5.02255276,16.4377706 3.64643184,15.4789408 C3.26319675,15.7797826 2.78010007,15.9591837 2.25510204,15.9591837 C1.00964357,15.9591837 0,14.9495401 0,13.7040816 C0,13.0325728 0.29350338,12.4296153 0.75922367,12.0164956 Z M2.25510204,14.9183673 C2.92573352,14.9183673 3.46938776,14.3747131 3.46938776,13.7040816 C3.46938776,13.0334502 2.92573352,12.4897959 2.25510204,12.4897959 C1.58447056,12.4897959 1.04081633,13.0334502 1.04081633,13.7040816 C1.04081633,14.3747131 1.58447056,14.9183673 2.25510204,14.9183673 Z"/>
</svg>
