<svg xmlns="http://www.w3.org/2000/svg" width="17" height="17" viewBox="0 0 17 17">
  <path fill="#747474" d="M7.90287054,6.55346199 C7.83995398,6.34602718 7.80612245,6.12594407 7.80612245,5.89795918 C7.80612245,4.65250072 8.81576602,3.64285714 10.0612245,3.64285714 C11.306683,3.64285714 12.3163265,4.65250072 12.3163265,5.89795918 C12.3163265,6.87276843 11.6978135,7.70311621 10.8318233,8.01796658 C10.8946813,8.22520812 10.9285084,8.44507439 10.9285713,8.67283215 C11.7435139,9.01267934 12.3163265,9.81699691 12.3163265,10.755102 C12.3163265,12.0005605 11.306683,13.0102041 10.0612245,13.0102041 C8.81597844,13.0102041 7.80646686,12.0009049 7.80612254,10.7557393 C7.61846901,10.677484 7.4436538,10.5746015 7.28571429,10.4511289 C6.9030518,10.7502834 6.4213262,10.9285714 5.89795918,10.9285714 C4.65250072,10.9285714 3.64285714,9.91892785 3.64285714,8.67346939 C3.64285714,7.42801092 4.65250072,6.41836735 5.89795918,6.41836735 C6.4213262,6.41836735 6.9030518,6.59665542 7.28571429,6.89580984 C7.4704902,6.7513574 7.67836393,6.63508647 7.90287054,6.55346199 L7.90287054,6.55346199 Z M10.2814148,7.09233087 C10.8469271,6.98874395 11.2755102,6.49340205 11.2755102,5.89795918 C11.2755102,5.2273277 10.731856,4.68367347 10.0612245,4.68367347 C9.39059301,4.68367347 8.84693878,5.2273277 8.84693878,5.89795918 C8.84693878,6.0920165 8.89246011,6.27544175 8.97340704,6.43813918 C9.48275492,6.50583065 9.93839474,6.74353178 10.2814148,7.09233087 L10.2814148,7.09233087 Z M6.6348021,7.70822009 C6.43045776,7.55199247 6.1750468,7.45918367 5.89795918,7.45918367 C5.2273277,7.45918367 4.68367347,8.00283791 4.68367347,8.67346939 C4.68367347,9.34410087 5.2273277,9.8877551 5.89795918,9.8877551 C6.1750468,9.8877551 6.43045776,9.79494631 6.6348021,9.63871868 C6.49601337,9.34610634 6.41836735,9.01885546 6.41836735,8.67346939 C6.41836735,8.32808331 6.49601337,8.00083244 6.6348021,7.70822009 L6.6348021,7.70822009 Z M8.85819279,10.9211145 C8.93913899,11.5132048 9.44690812,11.9693878 10.0612245,11.9693878 C10.731856,11.9693878 11.2755102,11.4257335 11.2755102,10.755102 C11.2755102,10.3094223 11.0354054,9.91982194 10.6774931,9.7085983 C10.3291544,10.3816205 9.65173416,10.8567794 8.85819279,10.9211145 L8.85819279,10.9211145 Z M4.29675028,14.6630208 C5.49363248,15.4808852 6.94095994,15.9591837 8.5,15.9591837 C12.6195934,15.9591837 15.9591837,12.6195934 15.9591837,8.5 C15.9591837,4.38040661 12.6195934,1.04081633 8.5,1.04081633 C4.38040661,1.04081633 1.04081633,4.38040661 1.04081633,8.5 C1.04081633,9.5761949 1.26872788,10.5991582 1.67891792,11.5232568 C1.86284122,11.4747932 2.05595709,11.4489796 2.25510204,11.4489796 C3.50056051,11.4489796 4.51020408,12.4586232 4.51020408,13.7040816 C4.51020408,14.0469871 4.43366939,14.3720169 4.29675028,14.6630208 Z M0.75922367,12.0164956 C0.271612888,10.9448457 0,9.75414213 0,8.5 C0,3.80557963 3.80557963,0 8.5,0 C13.1944204,0 17,3.80557963 17,8.5 C17,13.1944204 13.1944204,17 8.5,17 C6.69561852,17 5.02255276,16.4377706 3.64643184,15.4789408 C3.26319675,15.7797826 2.78010007,15.9591837 2.25510204,15.9591837 C1.00964357,15.9591837 0,14.9495401 0,13.7040816 C0,13.0325728 0.29350338,12.4296153 0.75922367,12.0164956 Z M2.25510204,14.9183673 C2.92573352,14.9183673 3.46938776,14.3747131 3.46938776,13.7040816 C3.46938776,13.0334502 2.92573352,12.4897959 2.25510204,12.4897959 C1.58447056,12.4897959 1.04081633,13.0334502 1.04081633,13.7040816 C1.04081633,14.3747131 1.58447056,14.9183673 2.25510204,14.9183673 Z M8.67346939,9.8877551 C9.34410087,9.8877551 9.8877551,9.34410087 9.8877551,8.67346939 C9.8877551,8.00283791 9.34410087,7.45918367 8.67346939,7.45918367 C8.00283791,7.45918367 7.45918367,8.00283791 7.45918367,8.67346939 C7.45918367,9.34410087 8.00283791,9.8877551 8.67346939,9.8877551 Z"/>
</svg>
