<svg xmlns="http://www.w3.org/2000/svg" width="17" height="17" viewBox="0 0 17 17">
  <path fill="#747474" d="M8.67346939,10.1145053 C8.25981281,10.6119089 7.63627441,10.9285714 6.93877551,10.9285714 C5.69331704,10.9285714 4.68367347,9.91892785 4.68367347,8.67346939 C4.68367347,7.42801092 5.69331704,6.41836735 6.93877551,6.41836735 C7.63627441,6.41836735 8.25981281,6.73502985 8.67346939,7.23243351 C9.08712596,6.73502985 9.71066437,6.41836735 10.4081633,6.41836735 C11.6536217,6.41836735 12.6632653,7.42801092 12.6632653,8.67346939 C12.6632653,9.91892785 11.6536217,10.9285714 10.4081633,10.9285714 C9.71066437,10.9285714 9.08712596,10.6119089 8.67346939,10.1145053 Z M4.29675028,14.6630208 C5.49363248,15.4808852 6.94095994,15.9591837 8.5,15.9591837 C12.6195934,15.9591837 15.9591837,12.6195934 15.9591837,8.5 C15.9591837,4.38040661 12.6195934,1.04081633 8.5,1.04081633 C4.38040661,1.04081633 1.04081633,4.38040661 1.04081633,8.5 C1.04081633,9.5761949 1.26872788,10.5991582 1.67891792,11.5232568 C1.86284122,11.4747932 2.05595709,11.4489796 2.25510204,11.4489796 C3.50056051,11.4489796 4.51020408,12.4586232 4.51020408,13.7040816 C4.51020408,14.0469871 4.43366939,14.3720169 4.29675028,14.6630208 L4.29675028,14.6630208 Z M0.75922367,12.0164956 C0.271612888,10.9448457 0,9.75414213 0,8.5 C0,3.80557963 3.80557963,0 8.5,0 C13.1944204,0 17,3.80557963 17,8.5 C17,13.1944204 13.1944204,17 8.5,17 C6.69561852,17 5.02255276,16.4377706 3.64643184,15.4789408 C3.26319675,15.7797826 2.78010007,15.9591837 2.25510204,15.9591837 C1.00964357,15.9591837 0,14.9495401 0,13.7040816 C0,13.0325728 0.29350338,12.4296153 0.75922367,12.0164956 Z M2.25510204,14.9183673 C2.92573352,14.9183673 3.46938776,14.3747131 3.46938776,13.7040816 C3.46938776,13.0334502 2.92573352,12.4897959 2.25510204,12.4897959 C1.58447056,12.4897959 1.04081633,13.0334502 1.04081633,13.7040816 C1.04081633,14.3747131 1.58447056,14.9183673 2.25510204,14.9183673 Z M10.4081633,9.8877551 C11.0787947,9.8877551 11.622449,9.34410087 11.622449,8.67346939 C11.622449,8.00283791 11.0787947,7.45918367 10.4081633,7.45918367 C9.73753178,7.45918367 9.19387755,8.00283791 9.19387755,8.67346939 C9.19387755,9.34410087 9.73753178,9.8877551 10.4081633,9.8877551 Z M6.93877551,9.8877551 C7.60940699,9.8877551 8.15306122,9.34410087 8.15306122,8.67346939 C8.15306122,8.00283791 7.60940699,7.45918367 6.93877551,7.45918367 C6.26814403,7.45918367 5.7244898,8.00283791 5.7244898,8.67346939 C5.7244898,9.34410087 6.26814403,9.8877551 6.93877551,9.8877551 Z"/>
</svg>
