<svg xmlns="http://www.w3.org/2000/svg" width="17" height="17" viewBox="0 0 17 17">
  <path fill="#747474" d="M10.5703733,7.81186675 C11.7401185,7.89500793 12.6632653,8.87030996 12.6632653,10.0612245 C12.6632653,11.306683 11.6536217,12.3163265 10.4081633,12.3163265 C9.71066437,12.3163265 9.08712596,11.999664 8.67346939,11.5022604 C8.25981281,11.999664 7.63627441,12.3163265 6.93877551,12.3163265 C5.69331704,12.3163265 4.68367347,11.306683 4.68367347,10.0612245 C4.68367347,8.87030996 5.60682028,7.89500793 6.77656552,7.81186675 C6.54989495,7.46016642 6.41836735,7.04136154 6.41836735,6.59183673 C6.41836735,5.34637827 7.42801092,4.33673469 8.67346939,4.33673469 C9.91892785,4.33673469 10.9285714,5.34637827 10.9285714,6.59183673 C10.9285714,7.04136154 10.7970438,7.46016642 10.5703733,7.81186675 L10.5703733,7.81186675 Z M4.29675028,14.6630208 C5.49363248,15.4808852 6.94095994,15.9591837 8.5,15.9591837 C12.6195934,15.9591837 15.9591837,12.6195934 15.9591837,8.5 C15.9591837,4.38040661 12.6195934,1.04081633 8.5,1.04081633 C4.38040661,1.04081633 1.04081633,4.38040661 1.04081633,8.5 C1.04081633,9.5761949 1.26872788,10.5991582 1.67891792,11.5232568 C1.86284122,11.4747932 2.05595709,11.4489796 2.25510204,11.4489796 C3.50056051,11.4489796 4.51020408,12.4586232 4.51020408,13.7040816 C4.51020408,14.0469871 4.43366939,14.3720169 4.29675028,14.6630208 L4.29675028,14.6630208 Z M0.75922367,12.0164956 C0.271612888,10.9448457 0,9.75414213 0,8.5 C0,3.80557963 3.80557963,0 8.5,0 C13.1944204,0 17,3.80557963 17,8.5 C17,13.1944204 13.1944204,17 8.5,17 C6.69561852,17 5.02255276,16.4377706 3.64643184,15.4789408 C3.26319675,15.7797826 2.78010007,15.9591837 2.25510204,15.9591837 C1.00964357,15.9591837 0,14.9495401 0,13.7040816 C0,13.0325728 0.29350338,12.4296153 0.75922367,12.0164956 Z M2.25510204,14.9183673 C2.92573352,14.9183673 3.46938776,14.3747131 3.46938776,13.7040816 C3.46938776,13.0334502 2.92573352,12.4897959 2.25510204,12.4897959 C1.58447056,12.4897959 1.04081633,13.0334502 1.04081633,13.7040816 C1.04081633,14.3747131 1.58447056,14.9183673 2.25510204,14.9183673 Z M10.4081633,11.2755102 C11.0787947,11.2755102 11.622449,10.731856 11.622449,10.0612245 C11.622449,9.39059301 11.0787947,8.84693878 10.4081633,8.84693878 C9.73753178,8.84693878 9.19387755,9.39059301 9.19387755,10.0612245 C9.19387755,10.731856 9.73753178,11.2755102 10.4081633,11.2755102 Z M6.93877551,11.2755102 C7.60940699,11.2755102 8.15306122,10.731856 8.15306122,10.0612245 C8.15306122,9.39059301 7.60940699,8.84693878 6.93877551,8.84693878 C6.26814403,8.84693878 5.7244898,9.39059301 5.7244898,10.0612245 C5.7244898,10.731856 6.26814403,11.2755102 6.93877551,11.2755102 Z M8.67346939,7.80612245 C9.34410087,7.80612245 9.8877551,7.26246822 9.8877551,6.59183673 C9.8877551,5.92120525 9.34410087,5.37755102 8.67346939,5.37755102 C8.00283791,5.37755102 7.45918367,5.92120525 7.45918367,6.59183673 C7.45918367,7.26246822 8.00283791,7.80612245 8.67346939,7.80612245 Z"/>
</svg>
