<svg xmlns="http://www.w3.org/2000/svg" width="385" height="385" viewBox="0 0 385 385">
  <g fill="none" fill-rule="evenodd" stroke="#000000" transform="translate(33.5 17.5)">
    <g transform="translate(3.91 9.99)">
      <path stroke-width="3" d="M154.783715,87.5544549 L86.3514786,206.082566 L223.215952,206.082566 L154.783715,87.5544549 Z"/>
      <path fill="#B3B3B3" fill-opacity=".6" stroke-width="3" d="M294.679665,73.3549035 L279.201111,100.164546 L310.158219,100.164546 L294.679665,73.3549035 Z" transform="rotate(60 294.68 86.01)"/>
      <path fill="#B3B3B3" fill-opacity=".6" stroke-width="3" d="M22.9096068,73.5856673 L7.43105255,100.39531 L38.388161,100.39531 L22.9096068,73.5856673 Z" transform="rotate(60 22.91 86.24)"/>
      <path fill="#B3B3B3" fill-opacity=".6" stroke-width="3" d="M159.429638,305.051942 L143.951083,331.861584 L174.908192,331.861584 L159.429638,305.051942 Z" transform="rotate(60 159.43 317.707)"/>
      <path stroke-width="3" d="M183.381414,53.3288849 L70.9585807,248.050944 L295.804247,248.050944 L183.381414,53.3288849 Z" transform="rotate(60 183.381 149.94)"/>
      <path stroke-linecap="square" d="M146.283424 171.010496L23.4015729 240.219814M164.64508 172.422931L281.877191 240.219814M188.893721 148.582572L267.990085 100.559779"/>
      <path stroke-linecap="square" d="M44.9522424,147.170137 L118.398866,103.384649" transform="matrix(-1 0 0 1 163.224 0)"/>
      <path stroke-linecap="square" d="M154.741482 206.479287L154.741482 294.071047M154.741482 18.0343982L154.741482 151.526326M44.1191264 102.678432L115.447097 154.232312M44.8253439 103.384649L109.797357 165.531792M154.289062 293.357166L145.108234 206.492409M154.289062 293.357166L133.808753 207.904845M154.289062 293.357166L121.096838 207.904845M45.5315615 102.678432L123.921708 138.695526M45.5315615 102.678432L129.571448 127.396046M45.5315615 102.678432L138.046059 116.096565M263.046562 102.678432L186.068851 137.283091M263.046562 102.678432L177.59424 125.98361M261.634127 102.678432L171.9445 114.68413M264.458997 102.678432L195.955896 155.644747M264.458997 102.678432L201.605637 165.531792M265.871432 102.678432L207.255377 175.418838M154.289062 294.769601L164.882325 206.492409M154.289062 294.769601L177.59424 206.492409M154.289062 294.769601L188.893721 207.904845M44.1191264 102.678432L101.322747 179.656143"/>
      <circle cx="153.517" cy="87.295" r="28.893" fill="#B3B3B3" fill-opacity=".6" stroke-width="3"/>
      <circle cx="220.593" cy="203.593" r="28.893" fill="#B3B3B3" fill-opacity=".6" stroke-width="3"/>
      <circle cx="155.146" cy="165.079" r="12.054" fill="#B3B3B3" fill-opacity=".6" stroke-width="3"/>
      <circle cx="220.593" cy="203.593" r="48.564"/>
      <circle cx="155.146" cy="165.079" r="133.792"/>
      <circle cx="155.146" cy="165.079" r="137.837"/>
      <circle cx="89.849" cy="200.116" r="48.564"/>
      <circle cx="153.517" cy="87.295" r="48.564"/>
      <circle cx="89.849" cy="200.116" r="28.893" fill="#B3B3B3" fill-opacity=".6" stroke-width="3"/>
    </g>
    <rect width="7.692" height="26.815" x="154.754" y=".935" fill="#FFFFFF" rx="3.846"/>
    <rect width="7.692" height="26.815" x="11.281" y="244.39" fill="#FFFFFF" rx="3.846" transform="rotate(59 15.127 257.798)"/>
    <rect width="7.692" height="26.815" x="293.684" y="244.194" fill="#FFFFFF" rx="3.846" transform="scale(-1 1) rotate(58 0 -279.157)"/>
  </g>
</svg>
