<svg xmlns="http://www.w3.org/2000/svg" xmlns:xlink="http://www.w3.org/1999/xlink" width="385" height="385" viewBox="0 0 385 385">
  <defs>
    <circle id="a" cx="177.247" cy="177.332" r="154.273"/>
  </defs>
  <g fill="none" fill-rule="evenodd" transform="translate(19.943 16.81)">
    <g transform="translate(.277 .024)">
      <polygon stroke="#000000" points=".306 212.23 314.637 60.291 117.406 347.629 150.29 .225 286.249 320.898 13.793 110.066 354.727 155.77 32.988 288.479 251.504 14.379 191.842 349.948 69.694 33.534 343.444 240.558"/>
      <use fill="#FFFFFF" xlink:href="#a"/>
    </g>
    <polygon stroke="#000000" points="44.193 203.11 281.165 88.564 132.474 305.186 157.265 43.28 259.763 285.034 54.36 126.089 311.388 160.544 68.832 260.593 233.569 53.951 188.59 306.934 96.504 68.392 302.882 224.466"/>
    <polygon stroke="#000000" points="32.628 205.534 290.114 81.072 128.551 316.446 155.488 31.868 266.859 294.55 43.675 121.845 322.953 159.284 59.399 267.993 238.398 43.463 189.525 318.346 89.467 59.154 313.711 228.739"/>
    <circle cx="178.057" cy="175.69" r="122.808" stroke="#000000" stroke-width="3"/>
    <circle cx="178.057" cy="175.69" r="107.29" stroke="#000000"/>
    <circle cx="178.057" cy="175.69" r="49.712" fill="#5A5959" fill-opacity=".5" stroke="#000000" stroke-width="3"/>
    <circle cx="178.057" cy="175.69" r="84.982" stroke="#000000"/>
    <circle cx="226.156" cy="67.41" r="24.709" fill="#A6A6A6" fill-opacity=".5" stroke="#000000" stroke-width="3"/>
    <circle cx="226.156" cy="67.41" r="47.081" stroke="#000000"/>
    <circle cx="270.364" cy="299.129" r="25.406" stroke="#000000"/>
    <circle cx="200.911" cy="25.797" r="15.874" stroke="#000000"/>
    <circle cx="31.151" cy="236.15" r="15.874" stroke="#000000"/>
    <circle cx="78.602" cy="251.134" r="49.259" stroke="#000000"/>
    <circle cx="80.411" cy="250.354" r="25.909" fill="#A6A6A6" fill-opacity=".5" stroke="#000000" stroke-width="3"/>
    <circle cx="153.907" cy="138.85" r="33.466" fill="#A6A6A6" fill-opacity=".5" stroke="#000000"/>
    <circle cx="222.918" cy="232.063" r="20.815" fill="#A6A6A6" fill-opacity=".5" stroke="#000000"/>
  </g>
</svg>
