<svg xmlns="http://www.w3.org/2000/svg" width="396" height="385" viewBox="0 0 396 385">
  <g fill="none" fill-rule="evenodd">
    <g transform="translate(59.529 43.224)">
      <g stroke="#000" transform="rotate(-180 135.185 108.26)">
        <circle cx="199.793" cy="67.191" r="64.352" fill="#777" fill-opacity=".5" stroke-width="3"/>
        <circle cx="66.297" cy="67.191" r="64.352" fill="#777" fill-opacity=".5" stroke-width="3"/>
        <circle cx="203.295" cy="154.309" r="14.018"/>
        <circle cx="193.671" cy="165.534" r="6.906"/>
        <circle cx="67.476" cy="165.534" r="6.906"/>
        <circle cx="59.237" cy="154.309" r="14.018"/>
        <circle cx="237.507" cy="14.918" r="14.018" fill="#6E6E6E"/>
        <circle cx="26.746" cy="14.918" r="14.018" fill="#6E6E6E"/>
        <circle cx="60.888" cy="34.168" r="29.397" fill="#2A2A2A" fill-opacity=".6"/>
        <circle cx="203.954" cy="34.168" r="29.397" fill="#2A2A2A" fill-opacity=".6"/>
        <circle cx="244.402" cy="38.787" r="5.187" fill="#373535"/>
        <circle cx="21.835" cy="38.787" r="5.187" fill="#373535"/>
      </g>
      <g stroke="#000" transform="rotate(-180 69.948 109.345)">
        <circle cx="69.318" cy="69.36" r="68.781"/>
        <path d="M69.3181821,5.12597227 L13.505559,101.796271 L125.130805,101.796271 L69.3181821,5.12597227 Z"/>
        <path d="M63.3299877,42.5694343 L36.3857273,89.2382622 L90.274248,89.2382622 L63.3299877,42.5694343 Z" transform="rotate(-60 63.33 65.654)"/>
      </g>
      <g transform="rotate(-180 136.75 144.493)">
        <circle cx="69.428" cy="139.655" r="68.912" stroke="#000"/>
        <circle cx="134.572" cy="72.351" r="53.747" stroke="#000" stroke-width="3"/>
        <g fill="#777" fill-opacity=".5" stroke="#000" transform="rotate(2 20.031 2156.818)">
          <circle cx="114.281" cy="30.548" r="2.36" transform="rotate(-15 114.28 30.548)"/>
          <circle cx="102.961" cy="18.323" r="2.36" transform="rotate(-30 102.961 18.323)"/>
          <circle cx="88.863" cy="9.444" r="2.36" transform="rotate(-45 88.863 9.444)"/>
          <circle cx="72.947" cy="4.517" r="2.36" transform="rotate(-60 72.947 4.517)"/>
          <circle cx="56.298" cy="3.876" r="2.36" transform="rotate(-75 56.298 3.876)"/>
          <circle cx="40.051" cy="7.567" r="2.36" transform="rotate(-90 40.05 7.567)"/>
          <circle cx="25.312" cy="15.337" r="2.36" transform="rotate(-105 25.312 15.337)"/>
          <circle cx="13.087" cy="26.657" r="2.36" transform="rotate(-120 13.087 26.657)"/>
          <circle cx="4.208" cy="40.755" r="2.36" transform="rotate(-135 4.208 40.755)"/>
        </g>
        <circle cx="134.572" cy="72.351" r="48.179" stroke="#000"/>
        <circle cx="134.572" cy="72.351" r="44.349" stroke="#000"/>
        <path stroke="#000" d="M69.4284909,76.5311018 L13.6158677,173.201401 L125.241114,173.201401 L69.4284909,76.5311018 Z"/>
        <path stroke="#000" d="M61.2196789,113.974564 L34.2754186,160.643392 L88.1639393,160.643392 L61.2196789,113.974564 Z" transform="rotate(-60 61.22 137.059)"/>
        <path stroke="#000" stroke-width="2" d="M117.979877,155.498427 L57.7586318,259.804684 L178.201123,259.804684 L117.979877,155.498427 Z" transform="rotate(-60 117.98 207.152)"/>
        <path stroke="#000" d="M134.335246,111.0988 L73.2479749,216.905057 L195.422517,216.905057 L134.335246,111.0988 Z"/>
        <rect width="26.647" height="23.316" x="121.134" y="106.935" fill="#FFF"/>
      </g>
      <g stroke="#000" transform="translate(55.267 53.657)">
        <g fill="#FFF" stroke-linecap="round" stroke-linejoin="round" transform="translate(66.793 .81)">
          <polygon points="16.728 25.947 16.728 .059 32.312 30.617"/>
          <polygon points=".246 32.197 16.531 25.994 16.582 .103"/>
        </g>
        <g transform="translate(.28 46.418)">
          <g stroke-linecap="round" stroke-linejoin="round" transform="translate(8.146 111.63)">
            <polygon fill="#494949" fill-opacity=".5" stroke-width="2" points=".054 26.69 76.797 7.089 147.84 21.674 73.947 37.424"/>
            <polygon fill="#6B6A6A" points="51.738 21.368 74.804 15.477 96.156 19.861 73.947 24.594"/>
            <polygon points="1.057 19.578 76.758 .243 146.836 14.631 73.947 30.167"/>
          </g>
          <g transform="translate(83.187)">
            <polygon fill="#B7B7B7" stroke-linecap="round" stroke-linejoin="round" stroke-width="2" points=".1 105.087 .1 .84 13.82 6.371 78.484 121.54"/>
            <g stroke-linecap="square" transform="matrix(-1 0 0 1 63.215 10.054)">
              <path d="M.19842432 86.6040837L62.0211364 67.3818959M14.3407654 59.5045261L62.3803316 44.5678542M26.5639203 38.2308367L61.8805826 27.2500257M36.2585206 20.5309536L62.0330029 12.5170389M44.7658278 5.68274242L62.0583742.306068342"/>
            </g>
            <g stroke-linecap="square" transform="translate(2.148 2.282)">
              <path d="M48.8535857 112.141185L6.30566467 2.22929182M62.1772908 115.472112L8.75804831 3.48272632M9.99277888 104.369024L.639728683.253722901M22.2061753 106.589641L2.60255724 1.04931768M35.5298805 109.920568L4.54261579 1.73892352"/>
            </g>
          </g>
          <polygon fill="#B7B7B7" stroke-linecap="round" stroke-linejoin="round" stroke-width="2" points="66.538 7.137 .87 125.781 82.728 105.319 82.979 .823"/>
          <g stroke-linecap="square" transform="translate(17.582 10.054)">
            <path d="M.534010807 87.2129102L64.1664133 67.3173482M14.805924 60.4776727L63.7749861 45.0032864M26.6490368 39.4024076L63.998349 27.4839369M36.4005621 21.2482087L63.9961804 12.4497707M44.4058449 6.73178903L64.0509369.462447938"/>
          </g>
          <g stroke-linecap="square" transform="translate(13.14 2.282)">
            <path d="M59.9566733 104.369024L67.0747392.315527198M.92760659 118.644732L56.7005627 4.33036683M14.4340139 115.472112L59.8487869 2.92160837M31.0886454 112.141185L62.7324452 1.66546315M64.908336.79722121L47.3968475 107.248887"/>
          </g>
        </g>
      </g>
      <path stroke="#979797"/>
    </g>
    <polyline stroke="#000" stroke-linecap="round" stroke-linejoin="round" points="181.781 130.042 199.552 133.336 213.85 128.457"/>
  </g>
</svg>
