<svg xmlns="http://www.w3.org/2000/svg" xmlns:xlink="http://www.w3.org/1999/xlink" width="396" height="385" viewBox="0 0 396 385">
  <defs>
    <path id="artboard-copy-9-a" d="M21.8005906,65.179719 L103.058071,81.4312151"/>
    <path id="artboard-copy-9-b" d="M21.8005906,65.179719 L98.5748998,72.4648724"/>
    <path id="artboard-copy-9-c" d="M129.396703,5.77769878 L98.5748998,71.3440796"/>
    <path id="artboard-copy-9-d" d="M129.396703,5.77769878 L103.058071,81.4312151"/>
    <path id="artboard-copy-9-e" d="M129.396703,6.89849162 L154.614542,82.5520079"/>
    <path id="artboard-copy-9-f" d="M129.396703,6.89849162 L159.097713,72.4648724"/>
    <path id="artboard-copy-9-g" d="M236.992815,65.179719 L155.053446,81.9762882"/>
    <path id="artboard-copy-9-h" d="M236.992815,65.179719 L163.00418,111.235189"/>
    <path id="artboard-copy-9-i" d="M236.992815,66.3005118 L180.392777,129.625307"/>
    <path id="artboard-copy-9-j" d="M238.113608,65.179719 L192.721498,128.504514"/>
    <path id="artboard-copy-9-k" d="M236.992815,192.950102 L181.51357,129.625307"/>
    <path id="artboard-copy-9-l" d="M236.992815,192.950102 L192.721498,128.504514"/>
    <path id="artboard-copy-9-m" d="M238.113608,192.950102 L156.445401,143.44879"/>
    <path id="artboard-copy-9-n" d="M238.113608,192.950102 L153.493749,174.45702"/>
    <path id="artboard-copy-9-o" d="M238.113608,192.950102 L159.097713,183.423363"/>
    <path id="artboard-copy-9-p" d="M129.396703,252.352122 L153.493749,174.45702"/>
    <path id="artboard-copy-9-q" d="M129.396703,252.352122 L157.97692,183.423363"/>
    <path id="artboard-copy-9-r" d="M236.992815,65.179719 L160.218506,72.4648724"/>
  </defs>
  <g fill="none" fill-rule="evenodd" transform="translate(62.936 57.904)">
    <g transform="translate(4.594 6.084)">
      <g stroke="#000" transform="translate(19.738 4.964)">
        <path d="M109.979986,1.02189049 L1.5359617,188.85245 L218.42401,188.85245 L109.979986,1.02189049 Z"/>
        <path d="M109.979986,247.97581 L218.42401,60.1452501 L1.5359617,60.1452501 L109.979986,247.97581 Z"/>
      </g>
      <g transform="translate(.18 .307)">
        <path stroke="#000" stroke-linecap="square" d="M99.1352962 186.225345L129.957099 251.791726M104.73926 176.13821L129.957099 250.670933M156.295731 134.668875L129.957099 251.791726M150.691767 142.514425L129.957099 251.791726M141.725424 145.876803L129.957099 251.791726M118.188774 144.75601L128.836306 249.55014M108.101639 142.514425L128.836306 252.912519M130.637004 147.892009L129.183813 252.215267M98.8491625 134.978199L129.957099 249.55014"/>
        <path stroke="#000" stroke-linecap="round" stroke-linejoin="round" d="M158.541584,142.655475 L236.432418,66.8609083"/>
        <path stroke="#000" stroke-linecap="square" d="M156.206189 116.014884L236.432418 192.389706M148.48955 107.035788L236.432418 65.7401154M160.761225 125.966292L237.553211 65.7401154M137.037382 97.7101515L236.432418 64.6193226M154.2552 128.083729L236.432418 192.389706M158.786588 154.890044L237.238029 192.816782M142.377361 155.784133L237.553211 193.510499M134.365118 161.647105L237.553211 193.510499"/>
        <path stroke="#000" stroke-linecap="round" stroke-linejoin="round" d="M142.276401,158.18717 L22.3609871,192.389706"/>
        <path stroke="#000" stroke-linecap="square" d="M120.299807 156.408086L22.3609871 192.389706M114.002979 150.457797L23.4817799 192.389706M108.574773 141.111242L22.3609871 192.389706M106.838438 130.674133L22.3609871 192.389706M98.5915309 121.70686L21.2401942 193.510499M21.8005906 192.950102L78.4006288 129.625307M20.6797978 192.950102L66.0719076 129.625307M21.8005906 65.179719L78.4006288 129.625307M21.8005906 64.0589262L66.0719076 129.625307M21.8005906 64.0589262L104.202108 143.293792M21.8005906 65.179719L101.771325 124.931222M21.8005906 65.179719L103.630449 113.996589M21.8005906 65.179719L110.865934 105.229417M21.8005906 65.179719L131.077892 100.484693"/>
        <g stroke-linecap="square">
          <use stroke="#979797" xlink:href="#artboard-copy-9-a"/>
          <use stroke="#000" xlink:href="#artboard-copy-9-a"/>
        </g>
        <g stroke-linecap="square">
          <use stroke="#979797" xlink:href="#artboard-copy-9-b"/>
          <use stroke="#000" xlink:href="#artboard-copy-9-b"/>
        </g>
        <g stroke-linecap="square">
          <use stroke="#979797" xlink:href="#artboard-copy-9-c"/>
          <use stroke="#000" xlink:href="#artboard-copy-9-c"/>
        </g>
        <g stroke-linecap="square">
          <use stroke="#979797" xlink:href="#artboard-copy-9-d"/>
          <use stroke="#000" xlink:href="#artboard-copy-9-d"/>
        </g>
        <g stroke-linecap="square">
          <use stroke="#979797" xlink:href="#artboard-copy-9-e"/>
          <use stroke="#000" xlink:href="#artboard-copy-9-e"/>
        </g>
        <g stroke-linecap="square">
          <use stroke="#979797" xlink:href="#artboard-copy-9-f"/>
          <use stroke="#000" xlink:href="#artboard-copy-9-f"/>
        </g>
        <g stroke-linecap="square">
          <use stroke="#979797" xlink:href="#artboard-copy-9-g"/>
          <use stroke="#000" xlink:href="#artboard-copy-9-g"/>
        </g>
        <g stroke-linecap="square">
          <use stroke="#979797" xlink:href="#artboard-copy-9-h"/>
          <use stroke="#000" xlink:href="#artboard-copy-9-h"/>
        </g>
        <g stroke-linecap="square">
          <use stroke="#979797" xlink:href="#artboard-copy-9-i"/>
          <use stroke="#000" xlink:href="#artboard-copy-9-i"/>
        </g>
        <g stroke-linecap="square">
          <use stroke="#979797" xlink:href="#artboard-copy-9-j"/>
          <use stroke="#000" xlink:href="#artboard-copy-9-j"/>
        </g>
        <g stroke-linecap="square">
          <use stroke="#979797" xlink:href="#artboard-copy-9-k"/>
          <use stroke="#000" xlink:href="#artboard-copy-9-k"/>
        </g>
        <g stroke-linecap="square">
          <use stroke="#979797" xlink:href="#artboard-copy-9-l"/>
          <use stroke="#000" xlink:href="#artboard-copy-9-l"/>
        </g>
        <g stroke-linecap="square">
          <use stroke="#979797" xlink:href="#artboard-copy-9-m"/>
          <use stroke="#000" xlink:href="#artboard-copy-9-m"/>
        </g>
        <g stroke-linecap="square">
          <use stroke="#979797" xlink:href="#artboard-copy-9-n"/>
          <use stroke="#000" xlink:href="#artboard-copy-9-n"/>
        </g>
        <g stroke-linecap="square">
          <use stroke="#979797" xlink:href="#artboard-copy-9-o"/>
          <use stroke="#000" xlink:href="#artboard-copy-9-o"/>
        </g>
        <g stroke-linecap="square">
          <use stroke="#979797" xlink:href="#artboard-copy-9-p"/>
          <use stroke="#000" xlink:href="#artboard-copy-9-p"/>
        </g>
        <g stroke-linecap="square">
          <use stroke="#979797" xlink:href="#artboard-copy-9-q"/>
          <use stroke="#000" xlink:href="#artboard-copy-9-q"/>
        </g>
        <g stroke-linecap="square">
          <use stroke="#979797" xlink:href="#artboard-copy-9-r"/>
          <use stroke="#000" xlink:href="#artboard-copy-9-r"/>
        </g>
        <path stroke="#000" stroke-linecap="square" d="M129.396703 5.77769878L105.299657 116.175793M129.396703 5.77769878L117.628378 102.726279M129.396703 5.77769878L131.077892 101.605486M129.396703 5.77769878L138.923442 101.605486M129.396703 5.77769878L152.372956 113.934207M70.2317013 241.156498L189.717721 16.2588655M189.199276 240.306976L68.6381663 15.3274843M3.40622244 129.218786L255.84861 129.218786M21.8005906 192.950102L105.299657 176.698606M21.8005906 192.950102L99.6956926 186.785742"/>
        <circle cx="129.521" cy="128.895" r="126.793" stroke="#000" stroke-width="3"/>
        <polygon stroke="#000" points="68.482 15.111 2.536 129.856 68.482 241.356 189.758 241.356 257.865 128.234 189.758 15.111"/>
        <path fill="#FFF" stroke="#000" d="M130.414836,75.0679827 L83.5379084,102.13239 L83.5379084,156.261203 L130.414836,183.32561 L177.291764,156.261203 L177.291764,102.13239 L130.414836,75.0679827 Z"/>
        <path stroke="#000" d="M130.414836,77.6314648 L85.7579491,103.414131 L85.7579491,154.979462 L130.414836,180.762128 L175.071723,154.979462 L175.071723,103.414131 L130.414836,77.6314648 Z"/>
      </g>
    </g>
    <g stroke="#000" transform="translate(93.897 94.604)">
      <circle cx="41.276" cy="41.391" r="39.805" fill="#CFCFCF" stroke-width="2"/>
      <g fill="#141414" fill-opacity=".3" transform="translate(6.08 4.993)">
        <circle cx="35.241" cy="18.155" r="17.175"/>
        <circle cx="49.204" cy="24.879" r="17.175"/>
        <circle cx="52.652" cy="39.987" r="17.175"/>
        <circle cx="42.99" cy="52.104" r="17.175"/>
        <circle cx="27.492" cy="52.104" r="17.175"/>
        <circle cx="17.83" cy="39.987" r="17.175"/>
        <circle cx="21.278" cy="24.879" r="17.175"/>
      </g>
    </g>
    <g fill="#FFF" stroke="#000" transform="translate(1.148 2.173)">
      <circle cx="22.926" cy="199.006" r="4.867"/>
      <circle cx="23.858" cy="68.149" r="4.867"/>
      <circle cx="133.342" cy="5.774" r="4.867"/>
      <circle cx="241.92" cy="68.743" r="4.867"/>
      <circle cx="261.352" cy="133.588" r="4.867"/>
      <circle cx="5.473" cy="133.588" r="4.867"/>
      <circle cx="193.976" cy="19.842" r="4.867"/>
      <circle cx="71.848" cy="19.3" r="4.867"/>
      <circle cx="242.851" cy="197.695" r="4.867"/>
      <circle cx="133.518" cy="260.714" r="4.867"/>
      <circle cx="73.13" cy="245.464" r="4.867"/>
      <circle cx="193.807" cy="245.464" r="4.867"/>
    </g>
  </g>
</svg>
