<svg xmlns="http://www.w3.org/2000/svg" width="396" height="385" viewBox="0 0 396 385">
  <g fill="none" fill-rule="evenodd">
    <g stroke="#000" transform="translate(47 48.5)">
      <g transform="translate(.5)">
        <g transform="translate(102.087 12.153)">
          <circle cx="49.986" cy="45.598" r="43.867" fill="#919191" fill-opacity=".5" stroke-width="3"/>
          <circle cx="84.93" cy="15.542" r="9.559" fill="#979797" fill-opacity=".5"/>
          <circle cx="10.344" cy="231.808" r="9.559" fill="#979797" fill-opacity=".5"/>
          <circle cx="50.942" cy="213.167" r="44.867" fill="#919191" fill-opacity=".5"/>
          <circle cx="50.634" cy="213.592" r="25.672"/>
          <circle cx="47.906" cy="212.808" r="23.211" fill="#474747" fill-opacity=".6"/>
          <circle cx="50.367" cy="45.598" r="16.017" fill="#474747" fill-opacity=".6"/>
        </g>
        <path d="M153,90.8609818 L121.274508,145.811146 L184.725492,145.811146 L153,90.8609818 Z"/>
        <path d="M152.984863,141.318013 L121.259371,196.268178 L184.710356,196.268178 L152.984863,141.318013 Z" transform="rotate(-180 152.985 168.543)"/>
        <path stroke-linecap="square" d="M300.853516 140.702148L.853515625 140.702148M300.853672 145.765625L.853672414 145.765625M300.853672 143.134766L.853672414 143.134766"/>
        <path d="M152.5,54.077224 L64.077224,142.5 L152.5,230.922776 L240.922776,142.5 L152.5,54.077224 Z"/>
        <path d="M152.5,48.1089622 L58.1089622,142.5 L152.5,236.891038 L246.891038,142.5 L152.5,48.1089622 Z"/>
        <path stroke-linecap="square" d="M153 195L153 91.4987923M108 140L153.5 54.5M195 139L152.5 55.5M108 146L153.5 230.5M195 147L152.5 230.5"/>
        <path d="M264.375,115.553036 L254.045628,133.444034 L274.704372,133.444034 L264.375,115.553036 Z"/>
        <path fill="#676767" d="M142.008038,26.633661 L141.68334,35.9317929 L128.83742,34.8079206 L132.773713,43.2493262 L120.917102,48.2821589 L128.312604,53.8550695 L120.185332,63.891415 L129.387825,65.3489467 L126.70854,77.953993 L135.579522,75.0716361 L139.127541,87.4450478 L145.569568,80.7741335 L154.534786,90.0578887 L157.07606,81.1954116 L169.382282,85.1939455 L167.453495,76.119714 L180.206142,74.0998931 L174.361555,66.8824295 L184.661953,59.1205234 L176.162788,55.512842 L181.627731,43.7932327 L172.372701,44.602943 L171.922382,31.7074941 L164.03502,36.6360646 L157.590504,25.4738348 L152.967169,33.4816858 L142.008038,26.633661 Z M151.033467,36.8309548 L161.979423,36.8309548 L163.723131,36.8309548 L160.801017,38.6568937 L172.038843,44.6321517 L168.563562,44.9361994 L175.887622,55.3960409 L172.590385,53.996447 L174.138811,66.6073633 L171.953189,63.9083446 L167.386561,75.8048163 L166.655713,72.3664469 L157.154686,80.92121 L158.149514,77.4518331 L145.805852,80.5294537 L148.237341,78.0115735 L135.955686,74.949413 L139.180764,73.9015217 L129.744994,65.4055168 L133.137948,65.9429079 L128.57326,54.0514877 L131.390466,56.1744048 L132.934998,43.595203 L134.379667,46.6933066 L141.671183,36.2799431 L141.550364,39.7397448 L152.81085,33.7524381 L151.033467,36.8309548 Z"/>
        <path d="M42.0410156 115.553036L31.7116433 133.444034 52.370388 133.444034 42.0410156 115.553036zM152.072266 1.39381404L148.304565 7.91966252 155.839966 7.91966252 152.072266 1.39381404zM165.881232 3.13456122L160.646702 8.55507489 167.95827 10.3780533 165.881232 3.13456122zM178.892864 8.28409885L172.433764 12.1651171 179.024374 15.8183519 178.892864 8.28409885zM190.152971 16.4650457L182.946831 18.6681837 188.457875 23.8073146 190.152971 16.4650457zM199.071288 27.2485485L191.540477 27.5115302 195.533631 33.9019124 199.071288 27.2485485zM204.994042 39.8437351L197.623308 38.2770372 199.951874 45.4436292 204.994042 39.8437351zM207.605698 53.5147626L200.832925 50.2114603 201.358568 57.7285052 207.605698 53.5147626zM206.729012 67.4808547L201.041973 62.537187 199.604151 69.9341412 206.729012 67.4808547zM202.428034 80.7179047L198.105905 74.5452658 194.921308 81.3746582 202.428034 80.7179047zM194.928225 92.5320136L192.350966 85.4510531 187.507304 91.223505 194.928225 92.5320136zM184.779722 102.057014L183.992058 94.5628931 177.895791 98.9920906 184.779722 102.057014zM172.584848 108.765427L173.633573 101.30336 166.646872 104.126171 172.584848 108.765427zM159.031395 112.247409L161.97571 105.311036 154.496477 106.22937 159.031395 112.247409zM145.113137 112.247409L149.648054 106.22937 142.168821 105.311036 145.113137 112.247409zM131.559683 108.765427L137.49766 104.126171 130.510958 101.30336 131.559683 108.765427zM119.364809 102.057014L126.24874 98.9920906 120.152473 94.5628931 119.364809 102.057014zM109.216307 92.5320136L116.637228 91.223505 111.793565 85.4510531 109.216307 92.5320136zM101.716497 80.7179047L109.223224 81.3746582 106.038626 74.5452658 101.716497 80.7179047zM97.4155192 67.4808547L104.540381 69.9341412 103.102558 62.537187 97.4155192 67.4808547zM96.5388333 53.5147626L102.785964 57.7285052 103.311607 50.2114603 96.5388333 53.5147626zM99.1504895 39.8437351L104.192657 45.4436292 106.521224 38.2770372 99.1504895 39.8437351zM105.073244 27.2485485L108.6109 33.9019124 112.604054 27.5115302 105.073244 27.2485485zM113.99156 16.4650457L115.686657 23.8073146 121.1977 18.6681837 113.99156 16.4650457zM125.251668 8.28409885L125.120157 15.8183519 131.710767 12.1651171 125.251668 8.28409885zM138.2633 3.13456122L136.186262 10.3780533 143.497829 8.55507489 138.2633 3.13456122z"/>
        <path d="M64.515625 90.9972213L35.9668434 140.445162 93.0644066 140.445162 64.515625 90.9972213zM242.011719 90.9972213L213.462937 140.445162 270.5605 140.445162 242.011719 90.9972213z"/>
        <g transform="translate(32.203 155.253)">
          <circle cx="231.294" cy="9.092" r="8.444"/>
          <circle cx="9.841" cy="9.092" r="8.444"/>
          <circle cx="26.733" cy="27.82" r="21.908"/>
          <circle cx="216.534" cy="27.82" r="21.908"/>
        </g>
        <circle cx="195.703" cy="50.641" r="22.424"/>
        <circle cx="132.199" cy="259.012" r="22.424"/>
      </g>
      <path stroke-linecap="square" d="M63 138.128906L125.501102 138.128906M180.455078 148.184082L241.500817 148.184082M179.42334 150.631348L239.5 150.631348M177.923828 153.165039L236.5 153.165039M176.652344 155.728516L233.5 155.728516M65.5 135.500977L127.438113 135.500977M68.5 133.259277L128.5 133.259277M70.5 131.075195L129.5 131.075195"/>
    </g>
    <path stroke="#000" stroke-linecap="square" d="M290 128L290 89.4967534M111.619141 128L111.619141 89.4967534M311.996094 152.671875L311.996094 114.168628M89.7441406 152.671875L89.7441406 114.168628"/>
    <circle cx="311.996" cy="154.867" r="2.5" fill="#6F6E6E" stroke="#000"/>
    <path stroke="#000" d="M200.220703,217.410113 C201.881591,217.410113 203.228006,216.063698 203.228006,214.40281 C203.228006,212.741923 201.881591,211.395508 200.220703,211.395508 C198.559816,211.395508 197.2134,212.741923 197.2134,214.40281 C197.2134,216.063698 198.559816,217.410113 200.220703,217.410113 Z M227.029056,224.013755 C228.495532,224.793494 230.31645,224.236783 231.096189,222.770307 C231.875929,221.30383 231.319218,219.482913 229.852742,218.703173 C228.386265,217.923434 226.565347,218.480144 225.785608,219.946621 C225.005869,221.413097 225.562579,223.234015 227.029056,224.013755 Z M247.732749,242.356886 C248.685395,243.717405 250.560586,244.048052 251.921105,243.095406 C253.281625,242.14276 253.612271,240.267569 252.659625,238.90705 C251.70698,237.546531 249.831789,237.215884 248.471269,238.16853 C247.11075,239.121176 246.780103,240.996367 247.732749,242.356886 Z M257.517808,268.174493 C257.72022,269.823 259.220686,270.995293 260.869193,270.792882 C262.5177,270.59047 263.689993,269.090004 263.487582,267.441497 C263.28517,265.79299 261.784704,264.620697 260.136197,264.823108 C258.48769,265.02552 257.315397,266.525986 257.517808,268.174493 Z M254.191766,295.583124 C253.596557,297.133696 254.371032,298.873195 255.921604,299.468404 C257.472176,300.063613 259.211675,299.289138 259.806884,297.738566 C260.402092,296.187994 259.627618,294.448495 258.077046,293.853286 C256.526474,293.258077 254.786975,294.032552 254.191766,295.583124 Z M238.476378,318.345816 C237.242098,319.457166 237.142445,321.358676 238.253795,322.592956 C239.365146,323.827235 241.266655,323.926889 242.500935,322.815539 C243.735215,321.704188 243.834868,319.802679 242.723518,318.568399 C241.612167,317.334119 239.710658,317.234465 238.476378,318.345816 Z M214.025553,331.169774 C212.414001,331.571579 211.433308,333.203727 211.835113,334.815279 C212.236918,336.426831 213.869066,337.407525 215.480618,337.00572 C217.09217,336.603915 218.072863,334.971767 217.671058,333.360215 C217.269253,331.748663 215.637105,330.767969 214.025553,331.169774 Z M186.415853,331.169774 C184.804301,330.767969 183.172153,331.748663 182.770348,333.360215 C182.368543,334.971767 183.349236,336.603915 184.960788,337.00572 C186.57234,337.407525 188.204489,336.426831 188.606294,334.815279 C189.008099,333.203727 188.027405,331.571579 186.415853,331.169774 Z M161.965028,318.345816 C160.730748,317.234465 158.829239,317.334119 157.717888,318.568399 C156.606538,319.802679 156.706192,321.704188 157.940472,322.815539 C159.174751,323.926889 161.076261,323.827235 162.187611,322.592956 C163.298962,321.358676 163.199308,319.457166 161.965028,318.345816 Z M146.24964,295.583124 C145.654432,294.032552 143.914933,293.258077 142.364361,293.853286 C140.813789,294.448495 140.039314,296.187994 140.634523,297.738566 C141.229731,299.289138 142.96923,300.063613 144.519802,299.468404 C146.070374,298.873195 146.844849,297.133696 146.24964,295.583124 Z M142.923598,268.174493 C143.126009,266.525986 141.953717,265.02552 140.305209,264.823108 C138.656702,264.620697 137.156236,265.79299 136.953825,267.441497 C136.751413,269.090004 137.923706,270.59047 139.572213,270.792882 C141.220721,270.995293 142.721187,269.823 142.923598,268.174493 Z M152.708657,242.356886 C153.661303,240.996367 153.330656,239.121176 151.970137,238.16853 C150.609618,237.215884 148.734427,237.546531 147.781781,238.90705 C146.829135,240.267569 147.159782,242.14276 148.520301,243.095406 C149.88082,244.048052 151.756011,243.717405 152.708657,242.356886 Z M173.412351,224.013755 C174.878827,223.234015 175.435538,221.413097 174.655798,219.946621 C173.876059,218.480144 172.055141,217.923434 170.588665,218.703173 C169.122188,219.482913 168.565478,221.30383 169.345217,222.770307 C170.124956,224.236783 171.945874,224.793494 173.412351,224.013755 Z"/>
    <circle cx="89.744" cy="154.867" r="2.5" fill="#6F6E6E" stroke="#000"/>
    <circle cx="290.027" cy="129.061" r="2.5" fill="#6F6E6E" stroke="#000"/>
    <circle cx="111.646" cy="129.061" r="2.5" fill="#6F6E6E" stroke="#000"/>
    <circle cx="256.999" cy="296.661" r="5.971" stroke="#000"/>
  </g>
</svg>
