<svg xmlns="http://www.w3.org/2000/svg" xmlns:xlink="http://www.w3.org/1999/xlink" width="396" height="385" viewBox="0 0 396 385">
  <defs>
    <circle id="artboard-copy-6-a" cx="100.86" cy="101.147" r="100.642"/>
    <circle id="artboard-copy-6-b" cx="100.86" cy="101.147" r="79.641"/>
    <circle id="artboard-copy-6-c" cx="100.86" cy="101.147" r="110.116"/>
    <circle id="artboard-copy-6-e" cx="121.513" cy="123.155" r="37.482"/>
    <circle id="artboard-copy-6-f" cx="120.675" cy="121.86" r="9.991"/>
    <circle id="artboard-copy-6-g" cx="51.292" cy="109.695" r="9.991"/>
  </defs>
  <g fill="none" fill-rule="evenodd" transform="translate(7.742 -14.04)">
    <g fill="#AFAEAE" fill-opacity=".5" stroke="#000" stroke-width="3" transform="rotate(-60 192.012 109.948)">
      <path d="M125.358023,10.3407673 L112.774204,32.1365818 L137.941842,32.1365818 L125.358023,10.3407673 Z" transform="rotate(120 125.358 20.489)"/>
      <path d="M235.439368,201.007251 L222.855549,222.803065 L248.023188,222.803065 L235.439368,201.007251 Z" transform="rotate(120 235.44 211.155)"/>
      <path d="M48.9990834,86.150241 L36.4152641,107.946056 L61.5829028,107.946056 L48.9990834,86.150241 Z" transform="rotate(61 49 96.298)"/>
      <path d="M127.012189,224.396644 L114.42837,246.192458 L139.596009,246.192458 L127.012189,224.396644 Z" transform="rotate(61 127.012 234.545)"/>
      <path d="M206.581355,85.4856816 L193.997536,107.281496 L219.165175,107.281496 L206.581355,85.4856816 Z" transform="rotate(61 206.581 95.634)"/>
      <path d="M19.2745911,199.414099 L6.69077176,221.209914 L31.8584105,221.209914 L19.2745911,199.414099 Z" transform="rotate(120 19.275 209.562)"/>
    </g>
    <g transform="translate(87.196 84.901)">
      <circle cx="100.86" cy="101.147" r="100.142" stroke="#000"/>
      <circle cx="100.86" cy="101.147" r="79.141" stroke="#000"/>
      <mask id="artboard-copy-6-d" fill="#fff">
        <use xlink:href="#artboard-copy-6-c"/>
      </mask>
      <circle cx="100.86" cy="101.147" r="108.616" stroke="#000" stroke-width="3"/>
      <g mask="url(#artboard-copy-6-d)">
        <g transform="translate(-20.653 -22.008)">
          <g transform="translate(69.905 63.916)">
            <path fill="#AFAEAE" fill-opacity=".5" stroke="#000" d="M51.6079849,1.20391699 L1.34812356,88.2565504 L101.867846,88.2565504 L51.6079849,1.20391699 Z"/>
            <path fill="#FFF" stroke="#000" d="M75.7581348,44.4268507 L27.3712206,44.4268507 L51.5646777,86.3311476 L75.7581348,44.4268507 Z"/>
          </g>
          <g transform="rotate(61 105.714 183.644)">
            <path stroke="#000" d="M59.4012195,9.6548083 L9.14135814,96.7074417 L109.661081,96.7074417 L59.4012195,9.6548083 Z"/>
            <path stroke="#000" d="M59.2961737,1.0300964 L1.67213854,100.837853 L116.920209,100.837853 L59.2961737,1.0300964 Z"/>
            <path fill="#AFAEAE" fill-opacity=".5" stroke="#000" d="M83.7141962,53.841444 L35.360655,53.841444 L59.5374256,95.7168391 L83.7141962,53.841444 Z"/>
          </g>
          <g transform="rotate(61 44.614 76.523)">
            <path stroke="#000" d="M58.6111129,9.93441421 L8.35125156,96.9870476 L108.870974,96.9870476 L58.6111129,9.93441421 Z"/>
            <path stroke="#000" d="M58.6097642,1.09577715 L0.985728991,100.903534 L116.233799,100.903534 L58.6097642,1.09577715 Z"/>
            <path fill="#AFAEAE" fill-opacity=".5" stroke="#000" d="M83.2854755,54.0542462 L34.5787639,54.0542462 L58.9321197,96.2354957 L83.2854755,54.0542462 Z"/>
          </g>
          <g transform="rotate(60 -19.056 185.633)">
            <path stroke="#000" d="M58.1308573,9.77999712 L7.87099594,96.8326305 L108.390719,96.8326305 L58.1308573,9.77999712 Z"/>
            <path stroke="#000" d="M58.9076016,1.02617561 L1.28356647,100.833932 L116.531637,100.833932 L58.9076016,1.02617561 Z"/>
            <path fill="#AFAEAE" fill-opacity=".5" stroke="#000" d="M82.4059303,54.7217475 L35.0475779,54.7217475 L58.7267541,95.7352837 L82.4059303,54.7217475 Z"/>
          </g>
          <circle cx="121.513" cy="123.155" r="36.982" stroke="#000"/>
          <circle cx="120.675" cy="121.86" r="8.491" stroke="#000" stroke-width="3"/>
        </g>
      </g>
    </g>
    <path stroke="#000" stroke-linecap="square" d="M220.063477 167.422852L315.063477 115.422852M188.094238 222.922852L188.094238 333.541053"/>
    <path stroke="#000" stroke-linecap="square" d="M59.3260937,166.044922 L156.55957,114.973596" transform="matrix(-1 0 0 1 215.886 0)"/>
    <circle cx="324.016" cy="110.457" r="9.491" stroke="#000"/>
    <circle cx="187.996" cy="342.851" r="9.491" stroke="#000"/>
    <circle cx="51.292" cy="109.695" r="9.491" stroke="#000"/>
  </g>
</svg>
