<svg xmlns="http://www.w3.org/2000/svg" width="396" height="385" viewBox="0 0 396 385">
  <g fill="none" fill-rule="evenodd" stroke="#000" transform="translate(22.5 18.36)">
    <polygon points="88.81 178.18 257.131 106.51 158.52 261.136 155.12 76.572 260.4 228.091 88.81 159.226 269.179 123.103 137.805 252.338 176.782 74.156 244.547 242.539 93.888 138.723 276.5 143.793 122.28 240.542 196.813 72.86 225.436 254.212 102.81 119.809 279.328 164.021 108.906 225.292 216.007 78.203 208.635 261.136 113.724 106.51 279.328 181.021 99.213 210.046 231.721 85.953 191.508 263.133 126.896 93.246 274.572 198.646 93.888 193.432 247.819 95.945 173.677 263.133 140.944 83.011 267.053 215.034"/>
    <circle cx="311.165" cy="213.548" r="38.598"/>
    <circle cx="225.297" cy="39.73" r="38.598"/>
    <circle cx="178.1" cy="53.48" r="25.633"/>
    <circle cx="89.801" cy="268.696" r="38.598"/>
    <circle cx="233.739" cy="299.251" r="38.598"/>
    <circle cx="56.71" cy="203.914" r="38.598"/>
    <circle cx="219.899" cy="68.338" r="8.998" fill="#686868" fill-opacity=".5" stroke-width="3"/>
    <circle cx="82.509" cy="197.011" r="8.998" fill="#686868" fill-opacity=".5" stroke-width="3"/>
    <circle cx="282.975" cy="201.987" r="8.998" fill="#686868" fill-opacity=".5" stroke-width="3"/>
    <circle cx="114.581" cy="248.362" r="8.998" fill="#686868" fill-opacity=".5" stroke-width="3"/>
    <circle cx="213.835" cy="274.249" r="8.998" fill="#686868" fill-opacity=".5" stroke-width="3"/>
    <circle cx="184.574" cy="168.251" r="26.802" fill="#3B3B3B" fill-opacity=".5" stroke-width="3"/>
    <circle cx="294.266" cy="254.086" r="18.066" fill="#686868" fill-opacity=".5" stroke-width="3"/>
    <circle cx="59.446" cy="160.268" r="18.066" fill="#686868" fill-opacity=".5" stroke-width="3"/>
    <circle cx="184.574" cy="168.251" r="96.108" stroke-width="3"/>
    <circle cx="184.574" cy="168.251" r="90.77" stroke-width="3"/>
    <circle cx="184.574" cy="168.251" r="85.943"/>
    <circle cx="184.574" cy="168.251" r="56.973"/>
    <path stroke-linecap="square" d="M108.756662 252.974951L63.7566617 304.974951M217.756662 283.974951L232.756662 342.974951M73.4910367 199.330419L.991036749 215.830419"/>
  </g>
</svg>
