<svg xmlns="http://www.w3.org/2000/svg" width="396" height="385" viewBox="0 0 396 385">
  <g fill="none" fill-rule="evenodd" stroke="#000" transform="translate(62.46 40.477)">
    <g transform="translate(3.301 8.434)">
      <path stroke-width="3" d="M130.677395,74.3857776 L73.3075588,173.753249 L188.047231,173.753249 L130.677395,74.3857776 Z"/>
      <path fill="#B3B3B3" fill-opacity=".6" stroke-width="3" d="M248.785674,62.3976924 L236.12241,84.3311094 L261.448938,84.3311094 L248.785674,62.3976924 Z" transform="rotate(60 248.786 72.614)"/>
      <path fill="#B3B3B3" fill-opacity=".6" stroke-width="3" d="M19.3416195,62.5925165 L6.6783553,84.5259335 L32.0048838,84.5259335 L19.3416195,62.5925165 Z" transform="rotate(60 19.342 72.81)"/>
      <path fill="#B3B3B3" fill-opacity=".6" stroke-width="3" d="M134.599752,258.009778 L121.936488,279.943195 L147.263016,279.943195 L134.599752,258.009778 Z" transform="rotate(60 134.6 268.226)"/>
      <path stroke-width="3" d="M154.821232,45.4905653 L60.3119811,209.185389 L249.330482,209.185389 L154.821232,45.4905653 Z" transform="rotate(60 154.821 126.588)"/>
      <path stroke-linecap="square" d="M123.500956 144.376984L19.7569659 202.807507M139.002931 145.569444L237.977082 202.807507M159.475041 125.442029L226.252782 84.8984013"/>
      <path stroke-linecap="square" d="M37.9512917,124.24957 L99.9591936,87.2833206" transform="matrix(-1 0 0 1 137.803 0)"/>
      <path stroke-linecap="square" d="M130.641739 174.321796L130.641739 248.271843M130.641739 15.2256855L130.641739 127.927318M37.2479268 86.6870908L97.4671392 130.211868M37.8441566 87.2833206L92.6973006 139.751545M130.25978 247.669144L122.508792 174.332875M130.25978 247.669144L112.969115 175.525335M130.25978 247.669144L102.236978 175.525335M38.4403865 86.6870908L104.621897 117.094812M38.4403865 86.6870908L109.391736 107.555135M38.4403865 86.6870908L116.546494 98.0154575M222.079173 86.6870908L157.090122 115.902352M222.079173 86.6870908L149.935364 106.362675M220.886713 86.6870908L145.165525 96.8229978M223.271632 86.6870908L165.437339 131.404328M223.271632 86.6870908L170.207178 139.751545M224.464092 86.6870908L174.977017 148.098763M130.25978 248.861603L139.203227 174.332875M130.25978 248.861603L149.935364 174.332875M130.25978 248.861603L159.475041 175.525335M37.2479268 86.6870908L85.5425427 151.676142"/>
      <circle cx="129.608" cy="73.699" r="24.16" fill="#B3B3B3" fill-opacity=".6" stroke-width="3"/>
      <circle cx="186.238" cy="171.885" r="24.16" fill="#B3B3B3" fill-opacity=".6" stroke-width="3"/>
      <circle cx="130.984" cy="139.369" r="9.943" fill="#B3B3B3" fill-opacity=".6" stroke-width="3"/>
      <circle cx="186.238" cy="171.885" r="40.923"/>
      <circle cx="130.984" cy="139.369" r="112.877"/>
      <circle cx="130.984" cy="139.369" r="116.292"/>
      <circle cx="75.856" cy="168.95" r="40.923"/>
      <circle cx="129.608" cy="73.699" r="40.923"/>
      <circle cx="75.856" cy="168.95" r="24.16" fill="#B3B3B3" fill-opacity=".6" stroke-width="3"/>
    </g>
    <rect width="6.339" height="22.483" x="130.73" y=".867" fill="#FFF" rx="3.169"/>
    <rect width="6.339" height="22.483" x="9.602" y="206.406" fill="#FFF" rx="3.169" transform="rotate(59 12.77 217.648)"/>
    <rect width="6.339" height="22.483" x="248.023" y="206.24" fill="#FFF" rx="3.169" transform="scale(-1 1) rotate(58 0 -235.68)"/>
  </g>
</svg>
