<svg xmlns="http://www.w3.org/2000/svg" width="17" height="17" viewBox="0 0 17 17">
  <path fill="#747474" fill-rule="evenodd" d="M10.3639206,8.94970703 L13.863892,12.4496784 C14.2544163,12.8402027 14.2544163,13.4733677 13.863892,13.863892 C13.4733677,14.2544163 12.8402027,14.2544163 12.4496784,13.863892 L8.94970703,10.3639206 L5.44973562,13.863892 C5.05921133,14.2544163 4.42604635,14.2544163 4.03552206,13.863892 C3.64499777,13.4733677 3.64499777,12.8402027 4.03552206,12.4496784 L7.53549347,8.94970703 L4.03552206,5.44973562 C3.64499777,5.05921133 3.64499777,4.42604635 4.03552206,4.03552206 C4.42604635,3.64499777 5.05921133,3.64499777 5.44973562,4.03552206 L8.94970703,7.53549347 L12.4496784,4.03552206 C12.8402027,3.64499777 13.4733677,3.64499777 13.863892,4.03552206 C14.2544163,4.42604635 14.2544163,5.05921133 13.863892,5.44973562 L10.3639206,8.94970703 Z"/>
</svg>
