<svg xmlns="http://www.w3.org/2000/svg" width="17" height="17" viewBox="0 0 17 17">
  <path fill="#747474" d="M13.3333333,10.3333333 L15.8333333,10.3333333 L15.8333333,13.6666667 C15.8333333,15.5076158 14.3409492,17 12.5,17 L3.33333333,17 C1.49238417,17 2.2545125e-16,15.5076158 0,13.6666667 L0,4.5 C-2.2545125e-16,2.65905083 1.49238417,1.16666667 3.33333333,1.16666667 L6.66666667,1.16666667 L6.66666667,3.66666667 L3.33333333,3.66666667 C2.87309604,3.66666667 2.5,4.03976271 2.5,4.5 L2.5,13.6666667 C2.5,14.126904 2.87309604,14.5 3.33333333,14.5 L12.5,14.5 C12.9602373,14.5 13.3333333,14.126904 13.3333333,13.6666667 L13.3333333,10.3333333 Z M16.647313,0.530963881 C16.8244904,0.714699695 16.9340405,0.96367982 16.9437878,1.24458564 L17.0963865,5.6422932 C17.1188881,6.29076007 16.6061767,6.88103624 15.9512135,6.96071193 C15.2962504,7.04038762 14.7470567,6.57929127 14.7245552,5.93082441 L14.6529666,3.86773096 L11.4001689,7.00892118 C10.9215574,7.47111091 10.2176975,7.51869815 9.82805377,7.11521024 C9.43841002,6.71172233 9.51053262,6.00995194 9.98914411,5.54776221 L13.2419418,2.40657199 L11.1826035,2.26302613 C10.535317,2.21790712 10.0936681,1.65295599 10.1961532,1.00117247 C10.2986382,0.349388941 10.9064482,-0.14240982 11.5537347,-0.0972908096 L15.9434377,0.208692769 C16.2238322,0.228237627 16.4688374,0.34641025 16.6462779,0.529892018 L16.647313,0.530963881 Z"/>
</svg>
